<svg width="194" height="19" viewBox="0 0 194 19" fill="none" xmlns="http://www.w3.org/2000/svg">
<path d="M4.89354e-05 17.875V0.2H6.37505C7.69172 0.2 8.82505 0.408333 9.77505 0.824999C10.7417 1.24167 11.4834 1.89167 12 2.775C12.5167 3.64167 12.775 4.76667 12.775 6.15C12.775 7.48333 12.475 8.6 11.875 9.5C11.2917 10.4 10.4917 11.0833 9.47505 11.55C8.45838 12 7.30005 12.225 6.00005 12.225H2.65005V17.875H4.89354e-05ZM2.65005 9.825H5.90005C7.16672 9.825 8.18338 9.53333 8.95005 8.95C9.71672 8.35 10.1 7.39167 10.1 6.075C10.1 4.925 9.78338 4.06667 9.15005 3.5C8.51672 2.91667 7.55838 2.625 6.27505 2.625H2.65005V9.825ZM22.6616 18.075C21.5116 18.075 20.4282 17.9083 19.4116 17.575C18.3949 17.2417 17.5366 16.7 16.8366 15.95C16.1366 15.2 15.6699 14.2083 15.4366 12.975H18.1616C18.3782 13.675 18.7282 14.225 19.2116 14.625C19.6949 15.0083 20.2532 15.275 20.8866 15.425C21.5366 15.575 22.1866 15.65 22.8366 15.65C23.4532 15.65 24.0282 15.5667 24.5616 15.4C25.1116 15.2333 25.5616 14.9583 25.9116 14.575C26.2616 14.1917 26.4366 13.6917 26.4366 13.075C26.4366 12.6083 26.3449 12.225 26.1616 11.925C25.9782 11.625 25.7199 11.3833 25.3866 11.2C25.0699 11 24.6866 10.8417 24.2366 10.725C23.7199 10.5583 23.1616 10.4167 22.5616 10.3C21.9782 10.1833 21.3949 10.05 20.8116 9.9C20.2449 9.75 19.7116 9.55833 19.2116 9.325C18.7949 9.15833 18.3866 8.95833 17.9866 8.725C17.6032 8.475 17.2699 8.18333 16.9866 7.85C16.7032 7.5 16.4699 7.09167 16.2866 6.625C16.1199 6.15833 16.0366 5.625 16.0366 5.025C16.0366 4.225 16.1616 3.54167 16.4116 2.975C16.6782 2.40833 17.0199 1.93333 17.4366 1.55C17.8699 1.16667 18.3616 0.866666 18.9116 0.65C19.4782 0.416666 20.0699 0.249999 20.6866 0.149999C21.3032 0.049999 21.9032 -8.34465e-07 22.4866 -8.34465e-07C23.5532 -8.34465e-07 24.5366 0.166666 25.4366 0.499999C26.3366 0.833333 27.0782 1.36667 27.6616 2.1C28.2616 2.81667 28.5866 3.76667 28.6366 4.95H26.0616C25.9949 4.31667 25.7782 3.81667 25.4116 3.45C25.0616 3.06667 24.6199 2.8 24.0866 2.65C23.5532 2.48333 22.9866 2.4 22.3866 2.4C21.9532 2.4 21.5199 2.44167 21.0866 2.525C20.6532 2.59167 20.2532 2.725 19.8866 2.925C19.5366 3.10833 19.2532 3.35833 19.0366 3.675C18.8366 3.99167 18.7366 4.38333 18.7366 4.85C18.7366 5.25 18.8199 5.60833 18.9866 5.925C19.1532 6.225 19.3866 6.48333 19.6866 6.7C20.0032 6.9 20.3532 7.075 20.7366 7.225C21.4366 7.49167 22.2032 7.7 23.0366 7.85C23.8699 7.98333 24.6532 8.175 25.3866 8.425C25.9199 8.59167 26.4199 8.8 26.8866 9.05C27.3532 9.28333 27.7532 9.575 28.0866 9.925C28.4199 10.2583 28.6782 10.6583 28.8616 11.125C29.0449 11.575 29.1366 12.1 29.1366 12.7C29.1366 13.6833 28.9616 14.525 28.6116 15.225C28.2616 15.9083 27.7866 16.4583 27.1866 16.875C26.5866 17.2917 25.8949 17.6 25.1116 17.8C24.3282 17.9833 23.5116 18.075 22.6616 18.075ZM36.6551 17.875V11.25L30.2801 0.2H33.3551L38.0051 8.675L42.6301 0.2H45.6301L39.2801 11.225V17.875H36.6551ZM47.9981 17.875V0.2H50.6481V7.975H59.4981V0.2H62.1481V17.875H59.4981V10.4H50.6481V17.875H47.9981ZM66.3086 17.875V0.2H68.9586V17.875H66.3086ZM80.3952 18.075C78.5785 18.075 77.0535 17.6917 75.8202 16.925C74.6035 16.1583 73.6868 15.1 73.0702 13.75C72.4535 12.4 72.1452 10.8417 72.1452 9.075C72.1452 7.30833 72.4535 5.74167 73.0702 4.375C73.7035 3.00833 74.6285 1.94167 75.8452 1.175C77.0785 0.391666 78.6035 -8.34465e-07 80.4202 -8.34465e-07C81.7368 -8.34465e-07 82.8868 0.216666 83.8702 0.65C84.8535 1.06667 85.6452 1.66667 86.2452 2.45C86.8618 3.21667 87.2702 4.13333 87.4702 5.2H84.8702C84.6202 4.35 84.1118 3.675 83.3452 3.175C82.5785 2.675 81.5952 2.425 80.3952 2.425C79.0618 2.425 77.9868 2.73333 77.1702 3.35C76.3702 3.96667 75.7868 4.775 75.4202 5.775C75.0535 6.75833 74.8702 7.825 74.8702 8.975C74.8702 10.1583 75.0618 11.2583 75.4452 12.275C75.8285 13.2917 76.4368 14.1083 77.2702 14.725C78.1035 15.3417 79.1702 15.65 80.4702 15.65C81.2702 15.65 81.9785 15.5417 82.5952 15.325C83.2118 15.0917 83.7285 14.7667 84.1452 14.35C84.5618 13.9167 84.8452 13.4167 84.9952 12.85H87.7702C87.5535 13.9333 87.1118 14.8667 86.4452 15.65C85.7785 16.4333 84.9368 17.0333 83.9202 17.45C82.9035 17.8667 81.7285 18.075 80.3952 18.075ZM98.4418 18.075C96.6252 18.075 95.0835 17.6917 93.8168 16.925C92.5668 16.1417 91.6168 15.0667 90.9668 13.7C90.3168 12.3333 89.9918 10.7833 89.9918 9.05C89.9918 7.3 90.3168 5.74167 90.9668 4.375C91.6168 3.00833 92.5752 1.94167 93.8418 1.175C95.1085 0.391666 96.6502 -8.34465e-07 98.4668 -8.34465e-07C100.3 -8.34465e-07 101.842 0.383333 103.092 1.15C104.342 1.91667 105.292 2.98333 105.942 4.35C106.592 5.71667 106.917 7.275 106.917 9.025C106.917 10.7583 106.592 12.3083 105.942 13.675C105.292 15.0417 104.334 16.1167 103.067 16.9C101.817 17.6833 100.275 18.075 98.4418 18.075ZM98.4668 15.65C99.8002 15.65 100.892 15.3417 101.742 14.725C102.592 14.1083 103.217 13.3 103.617 12.3C104.017 11.3 104.217 10.2167 104.217 9.05C104.217 8.16667 104.1 7.325 103.867 6.525C103.65 5.725 103.309 5.01667 102.842 4.4C102.375 3.78333 101.775 3.3 101.042 2.95C100.309 2.6 99.4502 2.425 98.4668 2.425C97.1502 2.425 96.0585 2.73333 95.1918 3.35C94.3418 3.96667 93.7085 4.775 93.2918 5.775C92.8752 6.775 92.6668 7.86667 92.6668 9.05C92.6668 10.2167 92.8668 11.3 93.2668 12.3C93.6835 13.3 94.3168 14.1083 95.1668 14.725C96.0335 15.3417 97.1335 15.65 98.4668 15.65ZM115.143 17.875L120.943 9.05L115.318 0.2H118.543L122.618 6.95L126.693 0.2H129.843L124.243 8.975L130.043 17.875H126.843L122.568 11.1L118.218 17.875H115.143ZM132.398 17.875V0.2H144.573V2.625H135.048V7.925H143.473V10.325H135.048V15.45H144.573V17.875H132.398ZM152.529 17.875L145.954 0.2H148.854L154.379 15.625L159.879 0.2H162.729L156.204 17.875H152.529ZM165.112 17.875V0.2H177.287V2.625H167.762V7.925H176.187V10.325H167.762V15.45H177.287V17.875H165.112ZM180.469 17.875V0.2H187.269C188.219 0.2 189.085 0.299999 189.869 0.499999C190.652 0.683333 191.335 0.991666 191.919 1.425C192.502 1.84167 192.952 2.40833 193.269 3.125C193.585 3.84167 193.744 4.725 193.744 5.775C193.744 6.725 193.577 7.54167 193.244 8.225C192.91 8.90833 192.452 9.475 191.869 9.925C191.285 10.375 190.627 10.7167 189.894 10.95L193.669 17.875H190.744L187.244 11.375H183.119V17.875H180.469ZM183.119 9H186.719C187.319 9 187.877 8.95833 188.394 8.875C188.927 8.775 189.394 8.60833 189.794 8.375C190.194 8.125 190.502 7.79167 190.719 7.375C190.952 6.94167 191.069 6.39167 191.069 5.725C191.085 4.95833 190.935 4.35 190.619 3.9C190.319 3.43333 189.869 3.10833 189.269 2.925C188.669 2.725 187.944 2.625 187.094 2.625H183.119V9Z" fill="#3BF7B8"/>
</svg>
