<svg width="808" height="867" viewBox="0 0 808 867" fill="none" xmlns="http://www.w3.org/2000/svg">
<g filter="url(#filter0_nf_53_418)">
<g filter="url(#filter1_f_53_418)">
<path d="M153.03 471.022C177.795 529.576 214.421 585.171 259.004 631.881C303.586 678.591 354.453 714.665 406.181 736.256C457.91 757.847 508.561 764.146 552.734 754.482C596.907 744.818 632.946 719.553 657.01 681.38C681.073 643.207 692.258 593.558 689.372 537.726C686.487 481.894 669.639 421.971 640.624 364.348C611.61 306.724 571.517 253.559 524.62 210.521C477.723 167.483 425.78 136.186 374.329 119.966L385.048 233.168C417.901 243.525 451.068 263.51 481.014 290.991C510.959 318.472 536.56 352.419 555.086 389.214C573.613 426.009 584.371 464.271 586.214 499.922C588.056 535.573 580.914 567.276 565.549 591.65C550.184 616.025 527.171 632.157 498.965 638.328C470.759 644.499 438.417 640.477 405.386 626.69C372.356 612.903 339.876 589.869 311.408 560.043C282.941 530.217 259.554 494.718 243.741 457.33L153.03 471.022Z" fill="#0CA172"/>
</g>
<g filter="url(#filter2_f_53_418)">
<path d="M176.341 471.208C201.04 528.291 237.991 582.01 282.711 625.851C327.432 669.691 378.001 701.769 428.286 718.195C478.571 734.62 526.411 734.687 566.004 718.387C605.597 702.087 635.242 670.12 651.343 626.365C667.445 582.609 669.311 528.944 656.716 471.878C644.121 414.811 617.606 356.796 580.385 304.868C543.165 252.939 496.84 209.329 447.027 179.326C397.215 149.323 436.557 151.348 390.255 152.969L393.152 197.014C431.044 195.687 398.444 200.872 439.209 225.425C479.975 249.979 517.886 285.669 548.346 328.165C578.806 370.662 600.506 418.141 610.813 464.842C621.121 511.543 619.593 555.462 606.416 591.27C593.239 627.079 568.978 653.239 536.577 666.579C504.175 679.918 465.024 679.864 423.872 666.422C382.72 652.98 341.335 626.728 304.737 590.85C268.139 554.972 237.9 511.009 217.686 464.294L176.341 471.208Z" fill="#3BF799"/>
</g>
<g filter="url(#filter3_f_53_418)">
<path d="M212.173 520.698C238.647 565.512 272.58 606.031 310.932 638.626C349.284 671.22 390.856 694.871 431.922 707.459C472.989 720.047 512.267 721.179 546.237 710.753C580.207 700.328 607.807 678.67 626.565 647.721C645.322 616.772 654.65 577.499 653.713 533.421C652.776 489.344 641.603 441.838 621.196 395.163C600.789 348.488 571.785 304.1 536.783 265.978C501.781 227.857 461.875 197.192 420.641 176.732L419.781 189.966C458.887 209.37 496.734 238.452 529.929 274.606C563.124 310.76 590.632 352.857 609.986 397.123C629.34 441.39 639.936 486.443 640.824 528.246C641.713 570.049 632.866 607.295 615.077 636.646C597.288 665.998 571.112 686.538 538.895 696.426C506.679 706.314 469.427 705.24 430.48 693.302C391.533 681.363 352.107 658.933 315.734 628.02C279.362 597.108 247.18 558.68 222.072 516.179L212.173 520.698Z" fill="#E3FFF5"/>
</g>
</g>
<defs>
<filter id="filter0_nf_53_418" x="83.0305" y="49.9658" width="676.787" height="778.923" filterUnits="userSpaceOnUse" color-interpolation-filters="sRGB">
<feFlood flood-opacity="0" result="BackgroundImageFix"/>
<feBlend mode="normal" in="SourceGraphic" in2="BackgroundImageFix" result="shape"/>
<feTurbulence type="fractalNoise" baseFrequency="1.6666666269302368 1.6666666269302368" stitchTiles="stitch" numOctaves="3" result="noise" seed="8738" />
<feColorMatrix in="noise" type="luminanceToAlpha" result="alphaNoise" />
<feComponentTransfer in="alphaNoise" result="coloredNoise1">
<feFuncA type="discrete" tableValues="0 0 0 0 0 0 0 0 0 0 0 0 1 1 1 1 1 1 1 1 1 1 1 1 1 1 1 1 1 1 1 1 1 1 1 1 1 1 0 0 0 0 0 0 0 0 0 0 0 0 0 0 0 0 0 0 0 0 0 0 0 0 0 0 0 0 0 0 0 0 0 0 0 0 0 0 0 0 0 0 0 0 0 0 0 0 0 0 0 0 0 0 0 0 0 0 0 0 0 0 "/>
</feComponentTransfer>
<feComposite operator="in" in2="shape" in="coloredNoise1" result="noise1Clipped" />
<feFlood flood-color="rgba(0, 0, 0, 0.2)" result="color1Flood" />
<feComposite operator="in" in2="noise1Clipped" in="color1Flood" result="color1" />
<feMerge result="effect1_noise_53_418">
<feMergeNode in="shape" />
<feMergeNode in="color1" />
</feMerge>
<feGaussianBlur stdDeviation="35" result="effect2_foregroundBlur_53_418"/>
</filter>
<filter id="filter1_f_53_418" x="78.0305" y="44.9658" width="686.787" height="788.923" filterUnits="userSpaceOnUse" color-interpolation-filters="sRGB">
<feFlood flood-opacity="0" result="BackgroundImageFix"/>
<feBlend mode="normal" in="SourceGraphic" in2="BackgroundImageFix" result="shape"/>
<feGaussianBlur stdDeviation="37.5" result="effect1_foregroundBlur_53_418"/>
</filter>
<filter id="filter2_f_53_418" x="131.341" y="107.18" width="578.621" height="668.382" filterUnits="userSpaceOnUse" color-interpolation-filters="sRGB">
<feFlood flood-opacity="0" result="BackgroundImageFix"/>
<feBlend mode="normal" in="SourceGraphic" in2="BackgroundImageFix" result="shape"/>
<feGaussianBlur stdDeviation="22.5" result="effect1_foregroundBlur_53_418"/>
</filter>
<filter id="filter3_f_53_418" x="187.173" y="151.732" width="491.604" height="591.084" filterUnits="userSpaceOnUse" color-interpolation-filters="sRGB">
<feFlood flood-opacity="0" result="BackgroundImageFix"/>
<feBlend mode="normal" in="SourceGraphic" in2="BackgroundImageFix" result="shape"/>
<feGaussianBlur stdDeviation="12.5" result="effect1_foregroundBlur_53_418"/>
</filter>
</defs>
</svg>
